<svg id="Livello_1" data-name="Livello 1" xmlns="http://www.w3.org/2000/svg" viewBox="0 0 410 86">
  <title>logoTavola disegno 1 copia</title>
  <g>
    <g>
      <path d="M117.07,64.27c0,10.24-6.33,20.58-26.2,20.58C74.36,84.85,65,77,65,62.9V58.26h11.8v3.17c0,8.76,2.73,15,14.28,15,10.8,0,14.15-5.28,14.15-13.61V7.7h11.8Z"/>
      <path d="M173.41,50.55c-.49-8.55-8.07-15.41-18.5-15.41-11.05,0-17.63,7.07-18.38,15.41Zm10.18,15.2c-2.85,12-13,18.57-27.44,18.57-20.49,0-30.17-12-30.79-28.71,0-16.36,12.66-28.39,30.17-28.39,22.73,0,29.68,18,29.06,31.24H136.53c-.37,9.5,6,17.94,20,17.94,8.69,0,14.78-3.59,16.64-10.66Z"/>
    </g>
    <polygon points="252.14 83.06 240.97 83.06 227.93 39.68 227.68 39.68 214.77 83.06 203.34 83.06 182.73 28.49 194.41 28.49 208.93 73.14 209.18 73.14 222.09 28.49 233.64 28.49 247.05 73.14 247.3 73.14 261.71 28.49 272.63 28.49 252.14 83.06"/>
    <path d="M319.67,50.55c-.5-8.55-8.07-15.41-18.5-15.41-11.05,0-17.63,7.07-18.38,15.41Zm10.18,15.2c-2.85,12-13,18.57-27.44,18.57-20.48,0-30.17-12-30.79-28.71,0-16.36,12.67-28.39,30.18-28.39,22.72,0,29.67,18,29.06,31.24H282.79c-.37,9.5,6,17.94,20,17.94,8.69,0,14.77-3.59,16.63-10.66Z"/>
    <rect x="337.29" y="7.7" width="10.55" height="75.35"/>
    <g>
      <path d="M365.19,65.86c.37,8,8.57,10.55,17.26,10.55,6.58,0,15.52-1.27,15.52-8.13s-10.44-8.13-21-10.13-21-5-21-15.41c0-11,12.79-15.51,24-15.51,14.15,0,25.45,3.8,26.33,17.1H395.73c-.74-7-7.95-9.18-14.9-9.18-6.33,0-13.65,1.48-13.65,7,0,6.44,11.18,7.49,21,9.5,10.56,2,21,5,21,15.51,0,13-14.28,17.2-27.32,17.2-14.4,0-26.57-5-27.19-18.47Z"/>
      <path d="M54.81,73.47V83.1H.87a17.66,17.66,0,0,1,1.17-7,36.72,36.72,0,0,1,6.6-10.86A102.9,102.9,0,0,1,21.75,52.92Q35,42,39.72,35.64T44.4,23.59a13.39,13.39,0,0,0-4.26-10A15.35,15.35,0,0,0,29,9.44q-7.23,0-11.58,4.34t-4.4,12L2.76,24.75q1.05-11.53,8-17.57t18.54-6q11.75,0,18.6,6.51A21.39,21.39,0,0,1,54.7,23.81a24.43,24.43,0,0,1-2,9.63,37.39,37.39,0,0,1-6.65,10A162.31,162.31,0,0,1,30.6,57.77Q21.58,65.34,19,68a33.15,33.15,0,0,0-4.23,5.43Z"/>
    </g>
  </g>
</svg>
